<?xml version="1.0" encoding="UTF-8" standalone="no"?>
<svg
   viewBox="0 0 214 27"
   version="1.1"
   id="svg13"
   sodipodi:docname="lesequenceur.svg"
   inkscape:version="1.3.2 (091e20e, 2023-11-25)"
   xmlns:inkscape="http://www.inkscape.org/namespaces/inkscape"
   xmlns:sodipodi="http://sodipodi.sourceforge.net/DTD/sodipodi-0.dtd"
   xmlns="http://www.w3.org/2000/svg"
   xmlns:svg="http://www.w3.org/2000/svg">
  <sodipodi:namedview
     id="namedview13"
     pagecolor="#36c028"
     bordercolor="#000000"
     borderopacity="0.25"
     inkscape:showpageshadow="2"
     inkscape:pageopacity="0.0"
     inkscape:pagecheckerboard="0"
     inkscape:deskcolor="#d1d1d1"
     inkscape:zoom="2.5420561"
     inkscape:cx="107.19669"
     inkscape:cy="13.571691"
     inkscape:window-width="1616"
     inkscape:window-height="688"
     inkscape:window-x="0"
     inkscape:window-y="44"
     inkscape:window-maximized="0"
     inkscape:current-layer="Layer_2-2"
     showgrid="false" />
  <defs
     id="defs1">
    <style
       id="style1">.cls-1{fill:#fff;}</style>
  </defs>
  <g
     id="Layer_2-2"
     data-name="Layer 2-2"
     inkscape:label="logo">
    <path
       class="cls-1"
       d="M208.41,6.39v2a6.18,6.18,0,0,1,4.73-2.53V9.14a.74.74,0,0,1-.51.49,4.77,4.77,0,0,0-4,4.38c-.08,3.08,0,6.17,0,9.31H205V6.39Z"
       id="path10"
       inkscape:label="r" />
    <path
       class="cls-1"
       d="M185.88,6.39h3.47V16.5a3.59,3.59,0,0,0,7.09.81,5.59,5.59,0,0,0,.16-1.22V6.41h3.47V17.09a6.67,6.67,0,0,1-5.94,6.49,7.76,7.76,0,0,1-6-1.59,5.5,5.5,0,0,1-2.21-3.93C185.79,14.2,185.88,10.32,185.88,6.39Z"
       id="path8"
       inkscape:label="u" />
    <path
       class="cls-1"
       d="M181.18,8.93,170.62,19.48c1.87,1.29,5.66,1,7.82-2.09L182,18.67c-2.48,4.33-6.17,5.62-9.88,5.13a9.5,9.5,0,1,1,9.1-14.87Zm-5.37,0a6,6,0,0,0-7.71,7.89Z"
       id="path3"
       inkscape:label="e" />
    <path
       class="cls-1"
       d="M161.14,18.67A9.52,9.52,0,1,1,150.35,5.15c4.53-1,8.38.78,10.8,4.93-1.12.4-2.2.83-3.31,1.16a1.47,1.47,0,0,1-.81-.55,5.65,5.65,0,0,0-2.84-1.87c-3.55-1.17-7.07,1.81-7.33,5A6,6,0,0,0,151.08,20a5.46,5.46,0,0,0,5.47-1.4c1.23-1.2,1.22-1.2,2.81-.53C159.92,18.26,160.5,18.44,161.14,18.67Z"
       id="path5"
       inkscape:label="c" />
    <path
       class="cls-1"
       d="M125.34,6.39h3.54V7.52a9.66,9.66,0,0,1,1.94-1.61,5.66,5.66,0,0,1,7.83,3.17,12.2,12.2,0,0,1,.64,3.79c.09,3.46,0,6.93,0,10.46h-3.62V12.49a3.56,3.56,0,0,0-2.14-3.23,3.44,3.44,0,0,0-3.82.74,2.59,2.59,0,0,0-.85,2.06v11.3h-3.57Z"
       id="path6"
       inkscape:label="n" />
    <path
       class="cls-1"
       d="M120.67,8.87q-5.26,5.25-10.53,10.53c1.6,1.36,5.7,1.2,7.82-2l1.78.63,1.72.63a9.27,9.27,0,0,1-9.53,5.19,9.51,9.51,0,0,1-1.27-18.67A9.14,9.14,0,0,1,120.67,8.87ZM107.52,16.6l7.67-7.68a5.83,5.83,0,0,0-5.83,1A6,6,0,0,0,107.52,16.6Z"
       id="path4"
       inkscape:label="e" />
    <path
       class="cls-1"
       d="M96.08,6.37h3.63v10.5a6.73,6.73,0,0,1-6,6.68,8,8,0,0,1-5.59-1.26,6.12,6.12,0,0,1-2.76-5c-.11-3.44,0-6.89,0-10.33V6.34H89V16.47a3.44,3.44,0,0,0,2.08,3.19A3.36,3.36,0,0,0,95,19a3.57,3.57,0,0,0,1.12-2.7V7.23Z"
       id="path7"
       inkscape:label="u" />
    <path
       class="cls-1"
       d="M78.24,24.31,75.81,21.1c-.58.23-.37.58-.11.92.65.87,1.31,1.72,2.06,2.71-1.07.51-2,1-3,1.41a.82.82,0,0,1-.62-.16c-1.5-1.1-3.22-.93-4.9-.82-.62,0-1.2.55-1.83.78a1.71,1.71,0,0,1-1,.06,12.69,12.69,0,0,1-5-3.56A1.24,1.24,0,0,1,61.24,21c.67-1.67-.53-3-.75-4.5-.06-.42-.69-.76-1.06-1.13a1.7,1.7,0,0,1-.65-1.57,14.31,14.31,0,0,1,1.29-4.57A2.3,2.3,0,0,1,62.41,7.6c1,.06,1.55-.83,2.33-1.22A5.24,5.24,0,0,0,67,3.65a1.06,1.06,0,0,1,.61-.45,11.11,11.11,0,0,1,6.26,0,1.36,1.36,0,0,1,.86.73c.48,1.8,2.13,2.42,3.39,3.38.51.39,1.38.3,2.07.46a1,1,0,0,1,.59.37,12.77,12.77,0,0,1,1.94,5.32,2.11,2.11,0,0,1-.84,2.12,2.73,2.73,0,0,0-1.09,1.71c-.13.94-.46,1.86-.63,2.79a2.12,2.12,0,0,0,.16,1.14c.27.65-.06,1-.46,1.42S78.84,23.7,78.24,24.31ZM70.73,8.08a6.72,6.72,0,1,0,6.75,7,6.81,6.81,0,0,0-6.65-6.95Z"
       id="path1"
       inkscape:label="q logo" />
    <path
       class="cls-1"
       d="M55.09.25A43.3,43.3,0,0,0,52,3.37a3.45,3.45,0,0,1-3.49,1.41,10.75,10.75,0,0,0-1.39,0c1-1.28,1.93-2.39,2.74-3.6A2.33,2.33,0,0,1,52.27,0c.9.09,1.82,0,2.73,0Z"
       id="path11"
       inkscape:label="accent" />
    <path
       class="cls-1"
       d="M55.29,17.38l3.57,1.29A9.47,9.47,0,1,1,48.51,5.11a9.64,9.64,0,0,1,8.23,2.25c1.39,1.19,1.4,1.4.11,2.68L47.92,19a8.11,8.11,0,0,1-.65.51A6.08,6.08,0,0,0,55.29,17.38Zm-10.44-.8,7.68-7.71a6,6,0,0,0-6.66,1.81,5.84,5.84,0,0,0-1,5.9Z"
       id="path2"
       inkscape:label="e" />
    <path
       class="cls-1"
       d="M26.81,19.3l3.42-.76a5.49,5.49,0,0,0,.92,1.32,2,2,0,0,0,2.52-.27,1.86,1.86,0,0,0,0-2.63l0,0a13.72,13.72,0,0,0-2.26-1.59c-1.4-.82-2.78-1.69-3.28-3.32a4.69,4.69,0,0,1,2.86-6,6.17,6.17,0,0,1,.74-.19A4.52,4.52,0,0,1,37,9.24c-1,.3-2,.62-3.07.89a.94.94,0,0,1-.55-.26c-.61-.64-1-.66-1.63,0a.94.94,0,0,0-.12,1.33.92.92,0,0,0,.31.24c.83.59,1.73,1.11,2.59,1.67a6.36,6.36,0,0,1,3,3.53A5.54,5.54,0,1,1,27,19.91c-.05-.19-.1-.38-.14-.57Z"
       id="path9"
       inkscape:label="s" />
    <path
       class="cls-1"
       d="M12.41,23.81V10.41h9.92v1.15H13.72v4.72h6.11v1.15H13.72v5.22h8.69v1.16Z"
       id="path13"
       inkscape:label="e" />
    <path
       class="cls-1"
       d="M0,23.81V10.41H1.41V22.65H9.18v1.16Z"
       id="path12"
       inkscape:label="l" />
  </g>
</svg>
