<?xml version="1.0" encoding="UTF-8" standalone="no"?>
<svg
   viewBox="0 0 124 124"
   version="1.1"
   id="svg1"
   sodipodi:docname="logo2.svg"
   inkscape:version="1.3.2 (091e20e, 2023-11-25)"
   width="124"
   height="124"
   xmlns:inkscape="http://www.inkscape.org/namespaces/inkscape"
   xmlns:sodipodi="http://sodipodi.sourceforge.net/DTD/sodipodi-0.dtd"
   xmlns="http://www.w3.org/2000/svg"
   xmlns:svg="http://www.w3.org/2000/svg">
  <defs
     id="defs1" />
  <sodipodi:namedview
     id="namedview1"
     pagecolor="#ffffff"
     bordercolor="#000000"
     borderopacity="0.25"
     inkscape:showpageshadow="2"
     inkscape:pageopacity="0.0"
     inkscape:pagecheckerboard="0"
     inkscape:deskcolor="#d1d1d1"
     inkscape:zoom="4.8909023"
     inkscape:cx="65.938754"
     inkscape:cy="60.929453"
     inkscape:window-width="1728"
     inkscape:window-height="921"
     inkscape:window-x="0"
     inkscape:window-y="44"
     inkscape:window-maximized="0"
     inkscape:current-layer="svg1"
     showgrid="false" />
  <path
     d="M 121.75088,63.644891 A 59.42,59.42 0 0 0 111.90131,29.093697 L 99.57501,26.843782 A 51.38,51.38 0 0 0 87.191034,17.106813 L 82.014004,5.660898 A 59.92,59.92 0 0 0 46.147762,4.355236 L 40.222146,15.396974 A 51.38,51.38 0 0 0 27.093017,24.205173 L 14.635742,25.552875 A 59.49,59.49 0 0 0 2.3,59.296443 l 8.676085,9.061631 a 51,51 0 0 0 4.321083,15.167239 l -2.598591,12.283595 a 59.94,59.94 0 0 0 28.272791,22.153212 l 11.294752,-5.42269 a 52.24,52.24 0 0 0 15.779548,0.57443 l 10.870566,6.22959 A 59.83,59.83 0 0 0 94.178787,112.4041 L 82.794418,96.099156 86.295292,93.664904 97.629695,109.96803 c 1.429825,-1.06869 2.820765,-2.16881 4.124685,-3.35216 l 3.933,-3.85947 q 1.57231,-1.68391 3.01869,-3.482489 l -1.65005,-12.398235 a 51,51 0 0 0 5.41247,-14.812902 z M 60.768429,96.137886 A 34.16,34.16 0 1 1 96.148542,63.243223 34.15,34.15 0 0 1 60.768429,96.137886 Z"
     id="path1"
     inkscape:transform-center-x="0.0027855272"
     inkscape:transform-center-y="-1.1667822"
     style="display:inline"
     inkscape:label="logo" />
</svg>
